<?xml version="1.0" encoding="UTF-8"?>
<svg id="Capa_1" data-name="Capa 1" xmlns="http://www.w3.org/2000/svg" viewBox="0 0 1080 1080">
  <defs>
    <style>
      .cls-1 {
        fill: #41659b;
      }

      .cls-2 {
        fill: #fff;
      }
    </style>
  </defs>
  <rect class="cls-1" width="1080" height="1080"/>
  <g>
    <path class="cls-2" d="M1027.87,614.44c-7.27,42.9-14.54,85.88-21.9,128.78-7.45,44.62-15.09,89.34-22.72,133.96-6.27,37.26-8,77.34-30.45,109.06-17.63,25.08-44.62,46.99-75.7,51.44-13.36,1.91-34.38,2.1-53.26,2.09-13.42,0-24.5-.39-31.99-.73-.82-5.18-1.91-12.09-3.36-20.18-1-5.18-3.91-20.99-8.63-41.8-.91-4-3.91-17.09-8.54-34.44-1.45-5.54-6.63-24.72-14.54-50.17-2.27-7-9.81-30.99-21.36-62.44-2-5.45-7.82-21.36-16.09-42.08-12.9-32.08-14.27-32.54-29.72-69.34,0,0-28.45-67.98-42.17-84.43-.09-.09-2.27-2.64-4.36-5.18-2.18-2.54-4.27-5.09-4.27-5.09-9.27-8.27-24.45-19.63-45.71-24.81-5.18-1.18-10.91-1.73-22.45-2.82-29.54-2.64-52.44-1.45-69.62.64-10.27,1.18-14.81,2.27-17.63,3.09-5.91,1.54-18.45,5-31.63,14.63-11.18,8.09-17.54,16.72-20.99,21.54-2.64,3.64-5.09,7.45-14.72,27.17-5.91,11.81-8.82,17.72-12.36,25.54-30.35,66.43-44.44,102.33-44.44,102.33-14.63,37.26-34.63,88.52-52.07,157.31-9.45,37.17-15.36,68.52-18.99,90.52-23.99-.27-48.08-.55-72.16-1.27-30.17-1-63.25-18.9-81.61-42.9-25.45-32.99-27.9-74.43-34.81-114.06-7.72-44.62-15.45-89.24-23.27-133.78-7.27-42.35-13.72-84.88-22.45-126.96-5.91-28.72-13.54-54.89-7.91-84.52,2.54-13,7.82-27.26,14.9-38.44,5-7.91,12.18-14.36,18.27-21.54,6.73-7.91,13.54-15.54,20.54-23.17,26.9-28.9,54.17-57.53,81.43-86.16,7.72-8.18,15.63-16.09,23.45-24.08,15-15.27,27.63-32.44,42.08-48.08,13.81-15,28.45-28.99,42.99-43.08,20.72-20.27,40.35-41.53,60.07-62.89,26.08-28.17,51.98-56.35,79.07-83.61,17.45-17.54,34.26-36.9,55.8-49.62,24.81-14.72,53.89-16.45,81.97-13.36,15.9,1.73,32.72,13.09,45.44,22.27,13.63,10,25.9,21.72,37.35,34.08,12.72,13.63,24.54,28.08,37.17,41.8,14.36,15.54,29.35,30.45,44.35,45.53,52.17,52.71,101.42,108.6,152.04,162.77,8.45,9.09,16.9,18.18,25.36,27.26,12.18,13,23.63,26.54,35.81,39.44,13.45,14.27,28.26,27.08,42.26,40.71,20.81,20.27,45.08,45.53,48.35,75.7,2.91,26.99,1,57.25-6.82,83.34Z"/>
    <path class="cls-2" d="M605.59,916.88c-23.18-66.09-46.36-132.19-69.53-198.28-23.17,66.09-46.33,132.19-69.5,198.28h139.04Z"/>
  </g>
</svg>